<svg width="20" height="20" viewBox="0 0 20 20" fill="none" xmlns="http://www.w3.org/2000/svg">
<path fill-rule="evenodd" clip-rule="evenodd" d="M17.3201 10.661C17.4154 10.4517 17.6623 10.3595 17.8717 10.454C18.081 10.5493 18.174 10.797 18.0787 11.0056C17.9732 11.2368 17.8607 11.4673 17.7412 11.6938C17.4412 12.3063 17.0318 13.1251 16.549 13.7618L16.5467 13.7665C16.5029 13.822 16.4748 13.8876 16.4639 13.9572V13.9579C16.1826 15.7439 15.6271 17.2166 14.9342 18.1126C14.3998 18.8025 13.774 19.1665 13.1255 19.1665C12.0146 19.1665 11.37 18.5204 10.9958 17.6689C10.5208 16.5853 10.5302 15.1392 10.4271 14.6735C10.3771 14.4501 10.2982 14.2782 10.1919 14.1665C10.1334 14.104 10.0701 14.0626 10.0005 14.0626C9.93101 14.0626 9.86773 14.104 9.80836 14.1665C9.70289 14.2782 9.62399 14.4501 9.57399 14.6735C9.47087 15.1392 9.48024 16.5852 9.00524 17.6689C8.63103 18.5204 7.98649 19.1665 6.87558 19.1665C6.59901 19.1665 6.32871 19.1017 6.06776 18.9743C5.86151 18.8735 5.77479 18.6235 5.87636 18.4173C5.97714 18.2103 6.22714 18.1243 6.43339 18.2251C6.57636 18.2946 6.72403 18.3329 6.87558 18.3329C7.80448 18.3329 8.20136 17.6056 8.41621 16.8376C8.67949 15.8993 8.67714 14.8673 8.76074 14.4929C8.95606 13.6109 9.51074 13.2289 10.0006 13.2289C10.4904 13.2289 11.0451 13.6109 11.2404 14.4929C11.324 14.8672 11.3217 15.8992 11.585 16.8376C11.7998 17.6056 12.1967 18.3329 13.1256 18.3329C13.5475 18.3329 13.928 18.0517 14.2748 17.6025C14.9037 16.7907 15.385 15.4471 15.6405 13.8298C15.6725 13.6212 15.7576 13.4251 15.8858 13.2579C16.3366 12.6626 16.7147 11.8946 16.9951 11.3236C16.9967 11.3205 16.9983 11.3166 16.9998 11.3134C17.1139 11.097 17.2209 10.8798 17.3202 10.6611L17.3201 10.661ZM4.67793 1.77286C4.4545 1.8252 4.23028 1.68536 4.17793 1.46193C4.12637 1.23771 4.26543 1.01349 4.48965 0.961142C6.20448 0.563492 8.23798 1.06036 9.68565 2.89631C9.76143 2.9924 9.87783 3.04787 10.0005 3.04787C10.1232 3.04787 10.2388 2.9924 10.3154 2.89553C12.453 0.185362 15.8592 0.390862 17.656 2.09788C19.1826 3.54788 19.5723 6.35188 18.7185 9.28304C18.7084 9.31976 18.6974 9.35648 18.6865 9.3932C18.6201 9.61352 18.3873 9.73852 18.167 9.6721C17.9466 9.60568 17.8216 9.37367 17.8888 9.15335C17.8982 9.11898 17.9091 9.0846 17.9185 9.05023C18.6709 6.46589 18.4279 3.97989 17.0818 2.70189C15.5841 1.27924 12.7498 1.15346 10.9686 3.41361L10.9671 3.41517C10.7335 3.70971 10.3772 3.88081 10.0007 3.88157C9.62409 3.88157 9.26784 3.70971 9.03348 3.41517L9.0327 3.41361C7.81785 1.87221 6.11703 1.43861 4.67803 1.77298L4.67793 1.77286ZM5.50137 17.279C5.62324 17.4736 5.56465 17.7314 5.37012 17.8532C5.1748 17.9751 4.91777 17.9165 4.7959 17.7212C4.2295 16.8189 3.78262 15.5055 3.53887 13.958C3.52793 13.8877 3.49902 13.8221 3.45605 13.7666C3.45449 13.7651 3.45371 13.7635 3.45293 13.762C2.97011 13.126 2.56075 12.3081 2.26075 11.6963C1.11388 9.51512 0.662312 7.19862 0.891996 5.30329C1.05215 3.98064 1.54435 2.85796 2.34513 2.09796C2.47638 1.97296 2.61623 1.85577 2.76388 1.74796C2.94903 1.61202 3.20998 1.65108 3.34591 1.83702C3.48263 2.02217 3.44201 2.28312 3.25763 2.41905C3.1381 2.50655 3.02481 2.60109 2.91935 2.70187C2.2467 3.34094 1.85371 4.29327 1.71935 5.4042C1.50763 7.15654 1.93966 9.29637 3.00138 11.3135C3.00294 11.3167 3.00451 11.3206 3.00607 11.3237C3.28653 11.8948 3.66467 12.6628 4.11543 13.2574C4.24512 13.4238 4.3295 13.6206 4.3623 13.8292C4.58495 15.2464 4.9834 16.4519 5.50137 17.2792L5.50137 17.279ZM3.75053 6.66669C3.75053 6.89716 3.56382 7.08309 3.33413 7.08309C3.10367 7.08309 2.91695 6.89716 2.91695 6.66669C2.91695 5.73544 3.24273 4.49486 4.01148 3.76436C4.61773 3.18858 5.29352 2.91671 6.25048 2.91671C6.48017 2.91671 6.66688 3.10343 6.66688 3.33311C6.66688 3.56358 6.48017 3.75029 6.25048 3.75029C5.54033 3.75029 5.03563 3.94092 4.58563 4.36826C3.97938 4.94482 3.75048 5.93232 3.75048 6.66659L3.75053 6.66669Z" fill="#415741"/>
</svg>

